<svg xmlns="http://www.w3.org/2000/svg" viewBox="0 0 134.39 119.55"><defs><style>.cls-1{fill:#00a1e9;}.cls-2{fill:#fff;}</style></defs><g id="Layer_2" data-name="Layer 2"><g id="레이어_1" data-name="레이어 1"><path class="cls-1" d="M102.7,114.12c-.36-.24-.62-.77-1.19-.54-.47.76-4.38.56-5.12.79a10.15,10.15,0,0,1-5.07,1.37c-.88-1.19-1.83.39-2.93-.38a8.48,8.48,0,0,1-5.25.72c-2,1.07-4.42-.08-6.61.27-.18-.5-.79-.46-1.27-.55-1.31.62-2.94-.11-4.2.66-.57.15-.92-.23-1.36-.39-1.13.62-2.49.65-3.58,1.38-.91.19-3.86-.61-5.12-.2-.74.27-1.58-.23-2.23.31,0,0-3.58.22-6.15.67-.38.47-1.79.49-2.56.49s-1.61.43-2.22.35c-1-.14-1.33-.49-2-.44-.84-.77-.81.44-1.82-.06-.74.54-2.14-.92-2.65.19-.75.15-1.74.52-2.4.18a2.13,2.13,0,0,1-1.24-.13c-.37-.06-.16,0-.45-.17a8.82,8.82,0,0,0-1.56-.33c-.25-.06-.58-.63-.92-.47a6.73,6.73,0,0,0-.72-.09,12.89,12.89,0,0,0-1.61-.29,12.05,12.05,0,0,1-2.5-.93c-.15-1.34-1.62.35-2.2-.73-1,.12-3.17-1.32-4.22-1.16-.93-.58-2.65-2-2.65-2a6.07,6.07,0,0,1-2.42-1.84A2.89,2.89,0,0,1,15.92,109c-.62-.61-1.44.11-2-.66a1.92,1.92,0,0,1-.1-2,1.38,1.38,0,0,0-1.59-.76c-.48-.81-1.94-1.46-1.6-2.65-.83-.46-1.19-.43-1.24-1.35-.27-.61-1.63-.54-1.29-1.46C6.32,99.32,7.49,97.6,6,96.72c.3-1.23-1.41-1.5-1.08-2.76-.75-.92-.24-2.3-1.29-3.1-1.7-3.33-.6-7.67-2.3-11,.43-1.38-.94-2.88.19-4.06-.54-.88.06-2.19-.17-3.22C1,72.27.64,72,.77,71.43c.73-1.11-.86-2.38,0-3.68C-.46,66.87.41,65.26,0,64.08,0,62.39,1.28,61,0,59.4c1.17-1,.26-6,0-7.09.86-1,0-2.79.7-3.75-.23-1.76.54-2.92.43-4.72.65-.84.21-1.76.64-2.68.34-.54,1-.81,1-1.45a.87.87,0,0,0-.54-.47,16.79,16.79,0,0,0,.58-4.06c1.05-.57.13-2.8.24-3.66.19-1.44,1-1.65,1.93-2.92a24.91,24.91,0,0,1,2.29-7.07c1.18-2.14,2.61-3.38,2.48-3.77,1.45.54,1.48-1.3,2.3-2a17.62,17.62,0,0,0,2.48-2.37,3.42,3.42,0,0,0,2.61-1.57c-.45-1.07,1.47-1.41,1-2.37.09.15.3,0,.43.07.57-1,1.74-1.1,2.48-1.91C22.5,6.78,24.25,7,25.38,6c.08-.84,3.53-.23,3.65-1C30,5,30.9,3.17,32,4.48c.31-.19.75,0,1-.35a.5.5,0,0,0-.22-.73l.61-.11V3.1l.22.19c.48-.77,1.88-.42,2.84-.65.53-.23,1.14-.84,1.8-.34a2,2,0,0,0,1.13-.85c.22,0,.48-.07.61.12.66-.31,1.71-.08,1.92-.92,1.84.23,3.58-.88,5.43-.38L47.6.08c2,.35,9.09-.71,10.85.59,1.93-.34,4.2-.69,5.7.62,2-.65,4.51.08,6.32,1,1.48-.69,2.35.11,3.75-.35,3,.85,2.77.29,5.88.83,1.8.46.68-1.2,7.61,1C89.41,3.7,95.27,7,96,7.14c.44.53,1.49.34,1.59,1,2.84-.27,5.05,1.38,7.59,2.11a2.6,2.6,0,0,0,1.89,1.3C108.23,12,109,13,110.34,13c.66,1,2.33.73,2.56,1.92a2,2,0,0,0,1.8.77,10.58,10.58,0,0,1,4.55,5.06c2.63.46,2.27,3,3.94,4.3.8,1.49,2.74,2.52,2.45,4.44,1.32.92,0,2.95,2,3.57l1.62,5.51A53.59,53.59,0,0,1,131,45.13c1,4.63,2.23,9.34,1.35,14a6.42,6.42,0,0,1,.27,4.6c1.82,2.56-.65,5.17.2,7.81A3.37,3.37,0,0,0,133.2,75a1.11,1.11,0,0,0-.3,1c-.86,1.34.51,3.11-.7,4.33.5,2.22-2.11,3.91-1,6.13-.37,1.76-1.47,6.36-2.34,7,.8,1.23-.94,2.22-.93,3.48,0,.54-1.38.92-1.2,1.53-.68,2.12-1.56,2.07-2,3.25.31,1.08-1.27,3.14-2.23,4-2.1,0-1.58,2.65-3.59,2.84-1.47,1.57-2.19,1.31-4.11,1.92-1.23.31-.22,0-1.54.17-1.26.57-.25.43-1.64,1-1.4-.87-2.15.23-3.11.72a.76.76,0,0,0-.88-.18,1,1,0,0,1-.32.35l-.2-.06a1.56,1.56,0,0,1-.25.26c-.44.11-1.93,1.31-2.36,1.43A3.68,3.68,0,0,0,102.7,114.12Z"/><path class="cls-2" d="M47.72,68.92a3.42,3.42,0,0,0-.18-1.36A7.42,7.42,0,0,0,47,66.12c-.25-.24-.23-.71-.56-.92a1.32,1.32,0,0,1-.41-.71c-.13,0-.13-.35-.32-.26-.15-.26-.45-.45-.61-.71.12-.37-.22-.26-.36-.35a4.5,4.5,0,0,0-.36-.38c-.29-.63-.89-.37-1.3-.82l0,0c-.09,0-.15-.13-.17-.24s-.21-.09-.27,0c-.1-.23-.25-.15-.41-.1s-.19-.18-.16-.33c-.16-.13-.36.13-.43-.19-.13.09-.15-.13-.22-.15l-.14.19c-.11-.3-.25.09-.41,0s-.09-.06-.08-.1c-.18-.11-.32.08-.52.06s-.27-.15-.34-.26c-.09.3-.38.32-.52.63-.33-.22-.4.45-.76.21-.14.37-.41-.21-.48.19-.14,0-.29-.12-.45-.15-.05.22-.43.2-.29.48a.59.59,0,0,1-.68.34c0,.13-.09.2-.15.28s-.28-.08-.45-.13c0,.24-.18.35-.19.56-.52-.11-.34.71-.85.65-.09.23-.21.6-.05.81-.11.5-.58.41-.85.48,0,.1,0,.17,0,.26,0,.25-.25.3-.27.51a2.43,2.43,0,0,1-.58,1.46c.09.11.15.33,0,.37s.12.13.09.3,0,.11-.09.08c0,.24-.07.33-.2.44-.12.34-.32-.07-.52.19l0,0-.12.17c-.4.07-.09.41-.23.74.28,0,.14.28.26.47-.09.11.06.38-.12.41a1.06,1.06,0,0,0,0,.36c.07,0,.14.22.23.07a.3.3,0,0,1,.23.32c0-.06.06,0,.1,0a.68.68,0,0,1,.41.43v-.05c.07-.06.2-.13.27,0v.09c0,.26-.11.68.2.92.19-.1.37-.28.57-.28.2-.19.38-.54.68-.34,0,.08-.1.19,0,.28s.32.08.43,0c.18.15-.09.37.09.5a3.1,3.1,0,0,1,.36-.21c.14-.58.5.14.75-.14s.51.11.78.16c.48,0,1,.42,1.45-.07a1.57,1.57,0,0,1,.2.3c.13.11.25,0,.38,0s.27,0,.43,0c.41-.15.52.43.94.4.1-.08.34.09.32-.19-.18,0-.38.13-.58,0l0,0c.23,0,.58-.36.7,0,.29,0,.58.13.79-.08a.14.14,0,0,1,0-.2c.09,0,.14,0,.2.09.39-.35.92-.35,1.36-.56.09.17.27.1.43.13a1.33,1.33,0,0,1,.94-.24c.13-.13.36.17.45-.15.36.11.38-.52.68-.47,0-.15.16-.22.13-.39s.22-.07.32-.24c-.1-.38.29-.34.43-.49.16-.39.67-.71.54-1.21C47.74,69.07,47.85,69,47.72,68.92Z"/><path class="cls-2" d="M8.15,53.15a3.79,3.79,0,0,0-.47,2.16c.15.23.41.13.59.33,1.43.07,2.57.88,4.05.71.21,0,.27.27.53.22.61,0,1.46.17,2.16.17.18-.29.7,0,.82-.27.2,0,.44-.08.5.12l1.4,0c.52-.42,1.08,0,1.63-.22.53.54,1.37-.37,1.7.44l.2-.27a3.07,3.07,0,0,0,1.75-.1c.32.17.7-.05,1.11,0,.2,0,.55-.27.73,0,.06-.07.18,0,.26-.05a1.09,1.09,0,0,1,.85.15.13.13,0,0,0,.06.22c.35.1.67-.17.93-.37.38,0,.47.25.64.42l.06,0c-.26-.12,0-.29.15-.37.58.15.7-.39,1.23-.39.14,0,.29.19.4,0,.41.05,1-.47,1.23,0a3.4,3.4,0,0,0,1.14-.39,1.1,1.1,0,0,1,.52,0c0,.29.47.14.65.29l-.15.15a1.51,1.51,0,0,0,.47.05l-.06-.05c.09-.25.61-.13.67-.1.26-.37.67,0,1-.08.18.15.41-.14.59.08.43-.25.81.12,1.25-.12,1,.07,2.07-.2,2.89.22a1.35,1.35,0,0,0,.7-.44c.12,0,.06.14.15.22l.06-.06c.35.1,1-.24,1,.28h.14v0a.47.47,0,0,1,.5-.17c.23.14.61-.1.93,0l-.14.18c0,.07,0,.17.2.12.56,0,1.17.29,1.64-.07l.14.12a2.62,2.62,0,0,0,.53-.27c-.09-.08-.18-.2-.32-.22,0-.25.32-.25.5-.35a5.49,5.49,0,0,0,1.72,0,.85.85,0,0,0,.79,0c.52,0,1.1-.24,1.49.23-.21.29-.5-.25-.65.12.09.17.26,0,.38,0,.32.2-.2.2-.2.33s.23,0,.35,0a.24.24,0,0,0,.12-.22,1,1,0,0,1,.61-.13c.41-.16.84,0,1.22-.12A2.12,2.12,0,0,1,53,56a1.23,1.23,0,0,1,.91,0l.12.1A8,8,0,0,1,56,56c.18.14.41-.25.56.1a3.1,3.1,0,0,0,1.66-.64c.29-.05.76.15.85-.13.12,0,.23-.17.32,0,.29.08.47-.09.67-.22s.73-.24.91,0a5.72,5.72,0,0,1,1.51-.27,1,1,0,0,0,.44-.37c-.17-.19-.2-.39-.52-.46-.59-.35-.59-1-1-1.36a3.1,3.1,0,0,0-.83-1.44c.12-.62-.58-1-.87-1.48-.09,0-.12.08-.18.1-.32-.32-.41-.81-.78-1.15a21.39,21.39,0,0,0-2.25-1.11c-2.77-.22-5.29-.64-8-.83a20.08,20.08,0,0,1-3.36-.32c-.38.09-.82-.15-1.17-.13a17.09,17.09,0,0,0-1.57-.93A7.91,7.91,0,0,0,39,44.29,10,10,0,0,1,37.87,44c-.49,0-.85-.35-1.31-.4-.35.32-.53-.27-.91,0-2.45-.39-4.67.18-7-.15a8.61,8.61,0,0,1-2,.05c-.35.37-.7-.1-1.11-.05a4.29,4.29,0,0,1-1.72.18,6.2,6.2,0,0,1-1.52.19,3.59,3.59,0,0,1-1.69.27c-.32.22-.94,0-1.26.35-.43-.17-.67.27-1,.34-.73-.15-1.17.35-1.9.32a3.24,3.24,0,0,1-1.4.32c-.26,0-.17-.34-.5-.22-.58.49-.56.33-1.32.6-.23,0-.46.39-.67,0l-.17.22c-.76,0-.56.81-1.2,1s-.26.76-.38,1.15c.26.27-.69.4-.52.7s-.26.61-.26.88c-.58.64-.79,1.45-1.37,2.09C8.73,52.42,7.6,52.59,8.15,53.15Zm50.57-3.73.05.1-.05-.05Z"/><path class="cls-2" d="M48.15,55.71c-.09.15.2.24-.06.32s-.21-.15-.27-.23a.19.19,0,0,0,0,.1c.08.15,0,.4.38.3.08-.15.23-.34.11-.52C48.23,55.68,48.2,55.73,48.15,55.71Z"/><path class="cls-2" d="M47,56c.05,0,.08.1.14.1.26,0,.26-.25.32-.42h-.08A.36.36,0,0,0,47,56Z"/><rect class="cls-2" x="34.8" y="56.13" width="0.06" height="0.07"/><path class="cls-2" d="M49.66,56a.84.84,0,0,0-.32.1C49.49,56.1,49.57,56,49.66,56Z"/><polygon class="cls-2" points="48.93 55.8 49.08 55.8 48.93 55.71 48.93 55.8"/><path class="cls-2" d="M5.44,85.13c.29,0,.44.15.73.16.53.6-1.22.43-.77,1.18.22.46.27,1,1,1.38-.23.51,1,.64.63,1.09.33.72,1.5.91,2,1.48a10.38,10.38,0,0,1,1.46.28c.38-.28.89.13,1.27-.15a2.9,2.9,0,0,1,1.7.34c.26-.31.89.25,1-.24.53-.05,1.26-.52,1.64-.06.5-.07,1.13-.52,1.56-.08a4.27,4.27,0,0,0,1-.19c.32.12.62-.1,1-.09a3.52,3.52,0,0,1,2.29,0,9.07,9.07,0,0,1,3.22-.45c1.19,0,2.52-.3,3.78-.25.59-.36,1.63.11,2.43-.17.41,0,.3-.21.55-.38.25,0,.15.2.27.29a51.45,51.45,0,0,0,5.7-.19c.61,0,1.25-.32,1.76,0,.28,0,.62-.22.82,0a1.72,1.72,0,0,0,.65,0c.7.61,1.12-.24,1.73-.23L43,89c0,.06,0,.08-.09.11A9.73,9.73,0,0,1,44.7,89v.09a.49.49,0,0,1-.38.1c.19.32.6-.38.94,0,.05-.14.5-.08.35-.31.25,0,.51-.39.75-.18-.21.08,0,.2.06.31l.42-.11c0,.37.74-.1.71.33l.39-.25c.16-.06.58-.11.61.09.32,0,.42.35.65,0,.28,0,.62-.19.9,0-.06-.34.21-.74-.19-.92,0-.14.13-.19.18-.3.34-.14.73.09,1.1.19l-.78.58c0,.25.35.26.51.46.36.12.17-.2.42-.25a.93.93,0,0,1,.32.12c.15.23-.29.17-.34.31l.32.06v-.17c.05-.08.25,0,.37,0-.07-.14.09-.2.22-.28.34-.11.95,0,.8.3.46-.22,1.3.13,1.58-.32l-.52-.32c0-.06,0-.17.1-.2-.12-.05-.24-.2-.15-.25.62-.11,1.1,0,1.72-.09a.62.62,0,0,1,.44.26c-.13.06-.18.17-.34.17.07.23-.35.3-.44.5.38-.11.2.2.35.29a19.17,19.17,0,0,0,4.28-.33c-.27-.29.27-.45.29-.7a.88.88,0,0,1,.8.21c0,.14-.1.25-.27.37,0,.42.66,0,1,.21.34-.16.56-.44.46-.68.36,0,.63-.33,1-.18-.18.2.14.43.42.52s-.1.31.18.32c0-.09.09-.11.18-.14a.47.47,0,0,1,.64.21c1.34,0,2.47.38,3.9.38.8-.39,1,.18,1.45.41.64-.35,1,.25,1.58.29.25-.17.82,0,.8-.36.23-.39.69.16,1.1.13,0-.62.76-1.06.51-1.67.26-.27.76-.44.58-.78-.2-.15.18-.37-.27-.35-.15-.2.26-.19.3-.25l-.19-.11c.23-.43,0-.86,0-1.29.17,0,.14-.19.14-.3-.62.1-.34-.44-.74-.59.26-.16.11-.51.17-.76a1.69,1.69,0,0,1-.74,0c-.1-.31-.63-.49-.52-.89a1.72,1.72,0,0,1-1-1.24A11.08,11.08,0,0,0,67,79.38a43.68,43.68,0,0,0-7.9-1.44c-3.84,0-7.76-.21-11.25-.07-.41,0-.87.21-1.22,0-1.32.12-2.81-.3-4.08-.27-.88-.32-1.89.14-2.65-.24-3.21-.37-6.43-.56-9.81-.84-3.11,0-5.68-.18-8.51,0-.33,0-.52.36-1,.24-.46.22-1.07.12-1.49.32-.19.51-1.33.31-1.48.85a8,8,0,0,0-1.83,1.05c-.37.06-.48.51-1,.39a18.79,18.79,0,0,1-3.12,2.16c-.34.23-.5.85-1.06.64-1.24.18-.17.82-1.18,1.17a2.45,2.45,0,0,0-1.2.3c-.67-.41-.72.44-1.22.55l0-.06c-.34.22-.87.16-1.09.43C5,84.41,6.11,84.94,5.44,85.13Zm43.42,3.42,0,.42s-.16-.06-.2-.06C48.92,88.92,48.69,88.66,48.86,88.55Zm-.52-.87c.08,0,0,.09,0,.15-.52-.13-.36.62-.87.18-.44-.06-.88.36-1.18,0-.17,0-.42.14-.53,0C46.56,87.46,47.54,88.07,48.34,87.68Zm-3.73.09c.54-.11.14.43.59.46-.28.56-.85-.18-1.35,0C43.63,87.75,44.27,88.07,44.61,87.77Zm-10.71.5c.24.06.34.41.72.21.31-.39,1.3.17,1.26-.43,1-.42.69.81,1.55.11V88h.08c.12.06-.05.17-.1.25.15.2.54-.16.44.15-1.2.27-2.5,0-3.62.31-.28-.06-.7.08-.89-.13C33.36,88.4,33.81,88.41,33.9,88.27Z"/><path class="cls-2" d="M69.28,35.43c-.42-.27.23-.58-.24-.86.13-.39-.35-.63-.43-1-.08-.1-.15-.27-.43-.22s-.41-.33-.46-.52-.85-.06-1-.41c-.51.1-.82-.18-1.23-.26a.44.44,0,0,1-.46-.07A4.89,4.89,0,0,1,63.75,32c-.16-.07-.4-.15-.28-.29a2.19,2.19,0,0,0-1.32-.47c-.5-.36-1.32-.09-1.91-.32-.31-.36-1.07-.1-1.47-.28a2.82,2.82,0,0,0-1.84-.17c-.19-.06-.15-.21-.41-.16-.35.26-.58-.34-.83,0a1.13,1.13,0,0,0-.72.05c-.32-.15-.46-.08-.82-.06v.06c-.14.09-.16-.08-.3,0s-.54-.22-.61.06c-.32.15-.61,0-.88-.11a3.33,3.33,0,0,1-1.07.28c-.53-.26-.54.21-1.06.14-.11,0-.25.07-.2.14a6.62,6.62,0,0,1-2.55.1c0,.38-.72.09-1,.17-.76-.12-1.39.25-2,0l-.18.17c-.34-.11-1,.42-1.43.38-.61-.19-.94.33-1.6.23-.22,0-.66-.12-.63.13-.19.07-.14-.08-.31-.07s-.47,0-.55.15-.79.25-1.07.38a1.79,1.79,0,0,1-.8,0c-.63.34-1.63.08-2.14.41a9.81,9.81,0,0,1-2.1.26c-.28-.15-.35.11-.63,0-.14.1-.33.15-.41.29-.52.14-1.38.32-1.53.68a3.36,3.36,0,0,0-.38.68c-.28.07-.11.22-.3.32s0,.38.06.57a15.85,15.85,0,0,0,3.48.26.51.51,0,0,1,.37.14c.22.06.16-.11.35-.12s.53,0,.75.09a10.7,10.7,0,0,0,1.25.4c1.05,0,1.82.14,2.87.13.11,0,.25.15.36,0,1,.07,2.18,0,3.23.06,3.22-.13,6.67,0,9.57.06.37.21.75-.11,1.12.09,2.1-.06,4.18-.15,6.31-.12,1.62.11,3-.12,4.42-.09.78-.15,1.8,0,2.55-.14.2.06.48-.09.61,0s.36,0,.26-.13c.5,0,.83-.46,1.39-.49Z"/><path class="cls-2" d="M94.52,68.09a.57.57,0,0,1,0-.24c-.52,0,.27-.66-.12-.76-.11-.21-.33-.39-.15-.55-.33.13-.32-.38-.55-.56a.32.32,0,0,1,.15-.33h-.1c-.16-.11-.08-.31-.11-.47h-.07a1.93,1.93,0,0,1,0-1.16c-.34-.49-.31-1-.57-1.44,0-.41-.39-.52-.37-.93,0,0-.12,0-.15.06l.15.17-.1.11c-.08-.11-.23,0-.28-.16a.66.66,0,0,1,.1-.18c-.16-.1-.1-.31-.29-.41.34-.54-.44-.62-.23-1.16l-.18.13c-.21-.67.12-.58-.07-1.2-.13.08.11-.16-.38-.39v0c0-.13,0-.39-.18-.41.18-.21-.28-.11-.07-.27a6.72,6.72,0,0,1-.41-.94c0,.08-.16-.32-.29-.3,0-.64-.6-1-1-1.49-.23-.7-.91-1-1.45-1.39-.88.2-.42-1-1.17-1-.21-.69-.93-.8-1.3-1.31.13-.52-.51-.23-.62-.65s-.65-.46-.93-.74c-.23.1-.36-.34-.65-.31a.58.58,0,0,0-.7.18c-.18-.08,0-.24-.05-.34H82.3l.11.1c0,.06,0,.11,0,.13s-.21-.07-.24-.13c.06.26-.28.08-.33.13-.21,0-.32.08-.47-.07-.39.07-.39-.34-.7-.34-.1.16-.26.05-.36,0s-.44-.08-.57.1c-.39-.18-.52.31-.83.36-.86,0-1.4.65-2.16.85s-1.27.75-1.94,1c-.78.72-1.84,1.11-2.21,2-.57.43-.59,1-1,1.49a2.76,2.76,0,0,0-.37.69,18.44,18.44,0,0,0-1.35,2.22c-.41.13-.31.7-.7.85.05.34-.52.52-.52.88-.18.1,0,.51-.33.51-.06,0,0-.1,0-.15,0,.13.08.31-.1.39a.14.14,0,0,1-.11-.06c.21.23-.28.23-.23.47-.36.18-.36.59-.65.82.05.36-.41.44-.31.75-.23.28-.81.41-.7.88-.6.62-.5,1.19-.68,2,0,.33-.36.49-.31.82-.39.39.31.88,0,1.21a2.12,2.12,0,0,1,.13,1.32c.44-.08.41.44.67.59.18.36.39.6.78.28a2.54,2.54,0,0,0,1.56.38c.29,0,.6-.46.88-.13.86.11,1.45.93,2.47.55.23.28.54,0,.75.23.75.15,1.11.51,1.83.66.11,0,.16.16.24,0,.21.16.19.28.37.38.67-.39,1.13.28,1.88.07.53.38.59-.25,1,.06,0,.31.46-.18.41.08a6.32,6.32,0,0,0,1.53.13c.1-.11.21-.39.41-.29.24.29.78,0,1.14.18.47,0,0,.49.5.39.26-.31.81-.1,1.1-.33.49.23.28-.08.74.15,0,.08.38-.09.32-.07.57.83,1.93-.39,2.71-.18.44.36,1.51-.84,1.9-.35.18,0,.33-.16.47-.24.18-.25.62-.13.88-.25a8.61,8.61,0,0,1,1.35-.34c1.11-.23,1.18.35,2.12-.42,0-.47,1.37-1,1.06-1.33C93.89,68,94.15,68.5,94.52,68.09Z"/><path class="cls-2" d="M133.94,68.81c-.25-.22-.51.16-.71,0-.43.1-.78.1-1.22.18-.15,0-.15.24-.31.21s0-.06-.06-.06-.08.09-.11.13c-.38,0-.55.18-.93.2,0,.37-.39,0-.49.3a.87.87,0,0,0-.84.16c-.65,0-1.28,0-1.91.07-.35.11-.84-.16-1.06.3-.21,0-.45-.24-.65-.12,0,.36-.37.17-.55.39-.15,0-.18-.11-.21-.2l-.14.12c-.35,0-.27-.27-.51-.41a.16.16,0,0,0-.18,0c-.14.06-.11.29-.27.28-.26.16-.38-.31-.63-.05,0-.17-.21-.17-.21-.28a1.75,1.75,0,0,0-1.36.16l-.2-.11a3.58,3.58,0,0,1-1-.05c-.1.26-.37.17-.55,0s-.25.07-.35.15c-.45,0-1-.34-1.36.11a1.89,1.89,0,0,0-1.29-.19c-.14.17-.43.15-.61.27a.75.75,0,0,0-.71-.08c-.1.08-.18,0-.22-.11s-.07,0-.09,0c0,.23-.24,0-.36.07-.19-.16-.21.13-.39.08-.29.24-.63-.2-1,0-.2-.29-.22.18-.41.08,0,0-.1,0-.08.1-.18,0-.2-.14-.36-.18-.15.48-.51-.33-.74.11l-.1-.08c-.08-.22-.33,0-.49-.12-.24.13-.69-.19-.83.15-.35-.25-.45.19-.76.21-.16-.18-.39.1-.53-.12-.42.19-.57-.36-.92-.12-.22-.09-.58,0-.71-.12-.16,0-.16.13-.26.2a.34.34,0,0,1-.37-.15c-.26.05-.55-.12-.71.19-.08-.09-.14-.22-.29-.22-.08.62-.41-.33-.71.15-.08-.1-.17.07-.23-.08s-.24-.07-.3,0-.27,0-.31-.12c-.12.18-.18-.12-.32-.07-.08.37-.49,0-.57.31-.1-.12-.27-.15-.25-.31a3.68,3.68,0,0,0-.73.07c-.25-.14-.65,0-.92-.15a.34.34,0,0,0-.36,0c-.17-.33-.6.13-.7-.27-.4.11-.69-.09-1,0-.12-.27-.46-.27-.71-.31,0-.13,0-.4-.16-.49-.11-.27.28-.51-.06-.7,0-.15-.15-.32,0-.45s.06-.17.18-.29.16-.45.31-.63c-.17-.39.42-.43.46-.76.33,0,.25-.47.6-.47.12-.15.42-.25.46-.44a10.22,10.22,0,0,0,1-.61,1.62,1.62,0,0,1,.79-.63c.17-.32.62-.37.8-.64.37-.07.53-.44.84-.53.06-.3.48-.17.61-.46.61-.25,1-.88,1.52-1.19.45-.1.82-.39,1.23-.52.3-.28.69-.19,1-.43a14.22,14.22,0,0,1,1.81-.18.46.46,0,0,0,.43,0c.1.12.22,0,.31.12,1.11-.34,1.81.47,2.79.57.51,0,.83.51,1.42.28.47.29,1,.08,1.59.18.1.66.92.17,1.35.5,0,0,.1-.07.1-.12.38,0,.59.39,1,.32,0,.12.15.21.25.25s.37.14.53,0c0-.39-.57-.1-.53-.49a.76.76,0,0,0,.57-.12c.41-.27.88.11,1.24.28,0,.11.31.18.1.33a5.24,5.24,0,0,0-1.07-.11v.16c.08.06.12,0,.14,0,.18.09.41.23.57.13.12.18.47,0,.61.18.61.09,1.16-.18,1.73.09.12,0,.06-.12.17-.12,0,.25.36,0,.46.15.35-.07.64,0,1-.07.15.29.61.1.92.16s.86,0,1.24.15c.33.29.7.22,1.12.3l-.14.31a.68.68,0,0,0,.45.15,1.9,1.9,0,0,0,1,.37c.22.51.89.12,1.2.4.22-.11.43.08.67.06.08.11.12.24.29.28-.06.25.1.4.14.61a.91.91,0,0,0,.81.4c.15.28.49.33.78.4v.42c.22.09.22.39.49.41,0,.24.3.2.43.31s.08.49.14.76C134.12,68.4,134.19,68.73,133.94,68.81Z"/><path class="cls-2" d="M56.11,110.09c.27-.29-.17-.59-.2-.87.29-.23.09.06,0-.1.15-.34-.14-.46-.32-.7l.22-.14c-.37-.32,0-1-.17-1.28.22-.17-.23-.73-.28-.92a1.94,1.94,0,0,1-.53-.73c0-.35-.76-.85-.9-1a2.1,2.1,0,0,1-.41-.65c.05-.48-.43-.65-.59-1a4,4,0,0,1-.34-.8c-.26-.06-.5-.47-.68-.64s-.55-.83-.85-.88c-.07-.3-.66-.38-.73-.71l-.23,0c-.19-.14-.57-.32-.5-.66-.1,0-.22-.15-.31,0-.09-.35-.11-.24-.35-.45s-.21-.34-.46-.52c-.31,0-.23-.41-.51-.31-.18-.2-.16-.06-.34-.3.13-.28-.36-.07-.23-.37-.06,0-.17-.27-.19-.08-.14-.24-.41.09-.51-.2-.26-.09-.28-.22-.43-.39s-.14,0-.21.11c-.23-.08-.55-.21-.52-.49-.14,0-.19-.09-.34,0-.19-.4-.47-.38-.75-.59-.3.23-.86.26-.86,0-.32-.22-.39-.21-.65-.07a3.22,3.22,0,0,0-1.4.47c-.09.25-.54.46-.67.38-.17.34-.64-.24-.66.26-.22-.14-1.78.72-2,.86-.19,0-.26,1.07-.48,1-.39.45-.6,0-1.08.4-.12.11-.15.37-.38.35-.66.74-.8.76-1.43,1.57a4.49,4.49,0,0,0-.22.73c-.66.55-.43.8-1.11,1.42a6.89,6.89,0,0,1-1.4,1.62c-.28,1.06-.89.39-1.15,1.42A6.75,6.75,0,0,1,29.53,107c.32.47-.69,1.61-.57,2s-.3.55-.3.84c.21.23.05.45,0,.73-.28.07.35.28.17.42.25.76.07.92.45,1.69,0,.54.36.89.33,1.43.15-.12.22.12.35.19-.13.25.2.33.36.41.12.36.57.56.69,1,.14,0,.38-.07.49.07.32-.13.7.46,1,.36.41-.31.53.62,1.07.4.76.24,1.23,1.09,1.66.86s1.19,1.13,1.65,1a6.66,6.66,0,0,1,0,.78c-.63.23.09.39,1.32,0l.71.21a.67.67,0,0,1,.61.19c.24,0,.13-.3.29-.19.31,0,.45-.17.7,0s.28,0,.63-.06c.21.19.58-.11.79.1.37-.51.75.23,1.17-.15a4.64,4.64,0,0,0,.73-.26,1.84,1.84,0,0,0,.71.47c0-.16.23,0,.29-.13a4.63,4.63,0,0,0,1.11-.56c.09,0,.52.11.59,0s.3-.28.55-.16.46-.15.78-.06c.33.38.13-.42.46-.07.12-.18.43.11.42-.18.27.08,1.49-.87,1.72-.85a1.07,1.07,0,0,0,.64,0,3.13,3.13,0,0,0,1.36-.85l.07,0c.1,0,.16,0,.21-.11a4.94,4.94,0,0,1,.94,0c.14-.37.1-.3.34-.37s.31.05.52-.26l.05.1.16-.14c.45-.13-.14-1,.11-1.41.34,0,.17,0,.3-.3,0,0,.32-.23.32-.2s-.13-.23,0-.29a1.33,1.33,0,0,0-.16-1l.36-.27c-.16,0-.17-.2-.16-.33.73-.2.35-.88.58-1.4C56,110.46,56.46,110.25,56.11,110.09Z"/><path class="cls-2" d="M127.54,49.73c-.07,0-.12,0-.16.06-.2,0-.07-.21-.29-.18,0,.13-.17,0-.3,0-.31-.23-.89-.25-1-.6-.75.13-.09-.37-.49-.55s-.48-.59-.9-.69c.18-.45-.57-.33-.68-.63-.75.33-.11-.54-.75-.52a2.59,2.59,0,0,1-1.48-.87,7.52,7.52,0,0,0-2.78-.38c-.45,0-.62-.3-1-.25a.74.74,0,0,0-.44,0l-.55-.14a.19.19,0,0,1,0-.07l-.07.06a9.94,9.94,0,0,0-2.19-.25c-.22,0-.43,0-.64,0h0l-.5.07-.12,0a.48.48,0,0,0-.44,0,.19.19,0,0,1,0,.12c-.58.14-1.08.06-1.72.2s-1.38.17-2.06.37a16.79,16.79,0,0,1-2,.35c-.36.07-.71.08-1.06.17s-.87.18-1.3.29a4.77,4.77,0,0,0-1.19.4l-.31.16c-.37-.27-.89.16-1.3,0-.73,0-.07.55-.77.64l-.2-.15c-.14-.07-.27,0-.4,0s-.62.17-.7.35a.44.44,0,0,1-.33.14.24.24,0,0,1-.07.35c-.2.06-.27-.12-.4-.17-.31,0-.5.13-.77.3s-.4,0-.51.08c-.22-.15-.33.16-.55.09-.07.13.09.28,0,.43s-.4.22-.59.34c-.18-.14.11-.1.11-.22s-.2-.2-.4-.25-.2.15-.29.22a.56.56,0,0,1-.26-.07l-.16.62c-.11.17-.33.66-.62.64-.11.13-.24.32-.35.47.11.43-.51.62-.4,1,0,.26.29.29.55.31,0,.1.16.06.25,0s.35.16.39.32c.22.14.2-.11.35-.15s.36,0,.44.17,0,.09-.06.13a.59.59,0,0,0,.31.12c.11-.13.24,0,.35-.12.33-.06.77-.28,1,.06.09-.1.22-.1.31-.21.26-.08.51,0,.7-.06.71.13,1.28,0,1.92.11a.58.58,0,0,1,.2-.11c.62.08,1.08-.24,1.72-.12.22.25.53-.15.75.12.22-.26.59.06.8-.22.17.17.46-.1.55.13.17,0,.13-.2.33-.13s0,.09,0,.13h.24c.22-.2.62-.11.86-.32.44.12.93-.08,1.28.07.13,0,.31,0,.4-.11s.15,0,.24,0h1l.09.15c.24,0,.46.08.66-.07.09-.33.49,0,.79-.08.14.07.29.16.4,0s.46.06.53.15c.11-.19.49-.13.51-.38.26,0,.29.3.57.15,0,.07.2,0,.2.08.42,0,1,.11,1.63.11.27-.19.58,0,.86-.22a2,2,0,0,1,.6.22c.28,0,.39.15.64-.07.08.07.2.13.24.22l.13-.12a3.18,3.18,0,0,1,.82.05c.09-.07.18-.1.24-.15.06.13.26,0,.33.11.13-.11.18.13.35,0s.2.1.16.18c.22-.09.39.07.59.1a2.13,2.13,0,0,1,1.24-.43.88.88,0,0,1,.79.22.39.39,0,0,0,.49-.15,1.84,1.84,0,0,1,.88,0,1.3,1.3,0,0,0,1.1.12c.38.57.79-.2,1.28.1.2,0,.38-.15.24-.3.18-.22.42,0,.66,0v-.1s-.06,0-.11,0c-.06-.22.27-.22.4-.34a4.49,4.49,0,0,0,.71-.15s.08,0,.13,0,0-.17,0-.22a1.16,1.16,0,0,0,.2-.45c0-.14.31-.1.2-.27C128,50.23,127.41,50,127.54,49.73Zm.06,1.5h0v0h0Z"/><path class="cls-2" d="M13.37,22.27c-.08.11-.24,0-.37,0a.22.22,0,0,0,.15.24v.19a.6.6,0,0,1,.21,0c.24,0,.09.16.1.24s.6.21.38.39c.16.05.25-.11.47-.06a2.23,2.23,0,0,0,.73.28,7.39,7.39,0,0,1,.95,0,2.3,2.3,0,0,1,1.07.17c.7.15,1.25-.24,1.84-.06.34,0,.63.19.87,0a13,13,0,0,0,1.3-.26,3.54,3.54,0,0,0,.92.31h.16s.1-.07.13-.1c.23-.07.16.1.34.09s.49-.23.76-.11c-.05,0,.05-.07.07-.11h.24c0-.05.1-.08.15-.12a2.72,2.72,0,0,1,.78.25c.08,0,.17,0,.25,0l.07-.06s-.05,0,0,0,.34-.08.46-.14.29.25.57.16.06-.23.33-.23c0,.12.34.06.36.2.2,0,.4-.19.55,0a1.56,1.56,0,0,0,.71,0c.25.15.37-.05.64,0,.15-.08,0-.27.35-.28a2.28,2.28,0,0,0,1.13,0c.17,0,.51,0,.46.13v.08a6.19,6.19,0,0,1,1.12-.21c.33.15,1,.08,1.11.35.27,0,.33-.2.57-.08.17-.21.5,0,.7-.19.47-.11.57.13.89.2s.53-.28.84-.09v0c.16,0,.25-.17.46-.14a1.16,1.16,0,0,0,.54.14c0-.05.1-.07.13-.11.48.08,1-.11,1.4,0,.08.1-.23.15,0,.22a2.06,2.06,0,0,1,1.12-.24.55.55,0,0,0,.35.06c.07-.09.28-.09.41-.05s.2.09.3.12a.86.86,0,0,1,.58-.1.58.58,0,0,0,.48.14c0-.1.23-.17.35-.26.39-.1.69.07,1.12,0,.17.17.53.08.77.15s.43-.24.55-.05a.52.52,0,0,1,.35.06v0c.43,0,.29-.35.7-.21-.13.06-.07.14.07.16.33-.17.75-.08,1.12-.19a1.4,1.4,0,0,0,1,.37c.33-.12-.49-.43.2-.45a.41.41,0,0,1,.42-.08c.31,0,.18.33.49.18l.09-.09c.32,0,.45.35.72.05a2.45,2.45,0,0,1,1-.15.94.94,0,0,0,.52.14,2.48,2.48,0,0,1,.78-.39c.15-.12.64,0,.65-.16.45-.08.56-.29.84-.45,0-.12-.31-.13-.27-.25a5.09,5.09,0,0,1-.54-.22c.14-.23-.36-.19-.4-.37a.87.87,0,0,1-.52-.24c-.06-.11.2-.14.33-.17H52c.26-.43-.79-.38-1.18-.61-.67-.14-1.16-.33-1.86-.45-.37,0-.62-.24-1-.23a2.49,2.49,0,0,0-.64-.18,13.41,13.41,0,0,0-1.89-.42c-.36-.19-.62-.13-.92-.31-.86-.14-1.83-.36-2.72-.56-.42,0-.89,0-1.18-.22a6.76,6.76,0,0,1-1.14-.13,5.63,5.63,0,0,1-.92-.23c-.3.15-.33-.16-.63,0-.23-.29-.66,0-1-.17a5.12,5.12,0,0,0-1.19-.07c-.86-.15-1.81-.16-2.64-.3a3.66,3.66,0,0,1-1.55-.19,3.19,3.19,0,0,1-1.3-.12c-.63.05-1,0-1.66,0a8.18,8.18,0,0,0-1.72,0c-.2-.18-.62.18-.57-.14-.34,0-.38.17-.72.19a10.25,10.25,0,0,0-1.94.23c-.31,0-.53.2-.88.14-.91.24-1.81.52-2.74.75a.5.5,0,0,1-.22.21c-.37-.06-.19.21-.57.18s-.39.34-.82.23c-.44.46-1.53.41-1.86.91-.09.13-.49,0-.48.2-.33.11-.37.36-.84.36-.18.11-.22.21-.21.34-.49.19-.62.52-1.19.64,0,.25-.68,0-.58.32,0,0-.18.13,0,.19s.08,0,.14.05c-.1.16-.51,0-.6.17s.21.31.12.46c.21,0,.15-.14.39-.09S13.33,22.2,13.37,22.27Zm35.79-1.76c.05-.21.35,0,.48,0l1.06.3c.38.21-1.28-.14-1.39-.19Zm-.43-.15a.26.26,0,0,1,.18-.06s.27.1.21.17-.38,0-.38,0ZM42,18.72c.1,0,.16,0,.24.07a8.19,8.19,0,0,1,1.8.38c1.55.27,2.91.68,4.41,1,.08,0,0,.08.09.12-.15,0-.16,0-.27-.08-.42,0-.48-.15-.93-.07a3.68,3.68,0,0,1-.73-.23,3.73,3.73,0,0,0-1.05-.25c0-.25-.37-.08-.65-.16V19.5a2.89,2.89,0,0,0-1-.17,6.44,6.44,0,0,0-1.31-.3C42.45,18.93,42,18.92,42,18.72Zm-1.45-.2.08,0c.09.09.24,0,.34,0a2.46,2.46,0,0,1,.84.25C41.9,18.91,40.9,18.66,40.57,18.52Zm-1-.2c.24,0,1,0,.87.15S39.7,18.44,39.55,18.32Z"/><path class="cls-2" d="M115.37,99l0,0h-.1c-.15-.14,0-.31.07-.45h-.07a2.53,2.53,0,0,1,.43-1.12c-.18-.47,0-.94-.2-1.37.09-.4-.28-.48-.18-.88l-.18.05.13.17-.13.1c-.07-.11-.23,0-.27-.15l.15-.17c-.17-.1,0-.27-.24-.38.44-.53-.36-.56-.08-1.09a1.13,1.13,0,0,1-.21.12c-.14-.63.09-.34-.05-.92-.14.08.1-.06-.44-.26a.13.13,0,0,0,0-.06c0-.12-.15.18-.41.16.2-.2-.14-.37.1-.53a3.92,3.92,0,0,1-.23-.8c-.06.07-.34-.36-.49-.33,0-.6-.63-.94-1.07-1.36a3.85,3.85,0,0,0-1.38-1.79c-1,.19-.46-.84-1.32-.9-.25-.64-1-.72-1.47-1.18.13-.48-.57-.21-.71-.58s-.71-.41-1-.67c-.27.1-.41-.29-.73-.27a.75.75,0,0,0-.78.18c-.21-.08,0-.21-.06-.31h-.2l.11.09-.06.13a.21.21,0,0,1-.25-.12c.05.24-.32.08-.38.12-.24,0-.34.08-.52-.06-.43.07-.42-.29-.77-.29-.12.14-.28,0-.4,0s-.48-.07-.63.1c-.43-.16-.57.28-.92.34-1,0-1.53.6-2.37.82-.86.06-1.4.68-2.16,1a7.61,7.61,0,0,0-2.3,2.11,7.67,7.67,0,0,0-1.33,1.17,2.55,2.55,0,0,0-.41.65,12.17,12.17,0,0,0-1.43,2.06c-.45.14-.3.64-.71.8.06.31-.51.48-.49.83-.2.11,0,.47-.31.48,0,0,0-.09,0-.14,0,.12.13.27-.07.36l-.12,0c.24.21-.26.22-.18.43-.36.19-.29.56-.55.79.12.34-.33.41-.17.71-.21.31-.71.4-.49.85A2.65,2.65,0,0,0,87,99.36c.12.29-.1.48.1.81-.1.31.36.63.54.93a2.39,2.39,0,0,0,.49,1.34.85.85,0,0,0,.68.36,2.61,2.61,0,0,1,.36.08,1,1,0,0,0,.28.3c.29.27.51.45.64.36a1,1,0,0,0,.29.2,1.85,1.85,0,0,1,.33.12,2.08,2.08,0,0,0,.33.21.8.8,0,0,0,.43.07c.19,0,.41.24.62.24.13.36.48.09.65.42,0,.08,0,.17.08.26s.28.09.46.09a1.58,1.58,0,0,1,.65,0c.15.07.19.22.27.34a1.48,1.48,0,0,0,.46.47s.13.25.18.27a.65.65,0,0,0,.22.18c.14.09.21.16.39.11s.23.1.31.09.23.06.35.07c.3,0,.39.26.54.17.34-.22.38.22.72.28a.58.58,0,0,0,.26,0,.17.17,0,0,1,.22,0c.14.08.4,0,.55.09a2,2,0,0,0,.59.11c.22,0,.19,0,.36-.06s.42.12.65.19a.36.36,0,0,0,.27,0,1,1,0,0,1,.24-.15c.11,0,.25.14.36.16a1.19,1.19,0,0,0,.42,0c.12-.08.42,0,.59-.08s.41,0,.71,0a2.56,2.56,0,0,1,.62,0,2.47,2.47,0,0,0,1,.09,1.85,1.85,0,0,0,.47,0c.16-.06.07-.11.27-.12a5.43,5.43,0,0,0,1.52-.25c0-.28,0-.26.3-.26h.69a2.29,2.29,0,0,0,.64,0c.2-.08.23-.3.35-.45a7.07,7.07,0,0,1,.4-.83,1.85,1.85,0,0,1,1.08-.29,4.3,4.3,0,0,0,.62,0c.11,0,.17-.09.28-.08a2.68,2.68,0,0,1,.27.07,1.38,1.38,0,0,1,.2.08c.11,0,.14-.06.23-.1s.08,0,.26,0,.61-.57.69-.59a2.83,2.83,0,0,0,.41,0,1.39,1.39,0,0,1,.17-.44c.1-.21.12-.12.27-.26a1.21,1.21,0,0,0,.28-.46,3.51,3.51,0,0,0,0-.57l.21-.12a1.72,1.72,0,0,0,.2-.47l.12-.09c.26-.23.58-.39.83-.64a3.07,3.07,0,0,0,.81-1.39A1.21,1.21,0,0,0,115.37,99Z"/></g></g></svg>